# xmcd CD database file
#
# Track frame offsets:
#	150
#	22127
#	35202
#	50830
#	61292
#	72780
#	87067
#	98742
#	119952
#	135135
#	154017
#	170792
#	186597
#	201005
#	212255
#	231525
#	248590
#	264665
#	277565
#	300322
#	326705
#
# Disc length: 4795 seconds
#
# Revision: 0
# Processed by: cddbd v1.4PL0 Copyright (c) Steve Scherf et al.
# Submitted via: CDex 1.51
#
DISCID=3012b915
DTITLE=Various Artist - Men in Jazz
DYEAR=2003
DGENRE=Jazz
TTITLE0=Louis Armstrong and Duke Ellington - Solitude
TTITLE1=Dean Martin - C'est si bon
TTITLE2=Nat King Cole - Unforgettable
TTITLE3=Chet Baker - My funny Valentine
TTITLE4=Julien Clerc - Avant Qu'on aille au fond des choses
TTITLE5=Matt Monro - Fly me to the moon
TTITLE6=Robbie Williams - Have you met Miss Jones
TTITLE7=Louis Prima - Just a gigolo/I ain't got nobody
TTITLE8=Louis Armstrong - Mack the knife
TTITLE9=Matt Monro - My way
TTITLE10=Chet Baker - Let's get lost
TTITLE11=Claude Nougaro - Armstrong
TTITLE12=Mel Torme - Blue moon
TTITLE13=Matt Monro - Strangers in the night
TTITLE14=Louis Prima - When the Saints go marchin' in
TTITLE15=Fred Astaire - Cheek to cheek
TTITLE16=Johnny Mathis - Misty
TTITLE17=Tony Bennet - I left my heart in San Francisco
TTITLE18=Ray Charles and Dee Dee Bridgewater - Precious Thing
TTITLE19=Louis Armstrong - What a onderful world
TTITLE20=Player
EXTD=YEAR: 2003
EXTT0=
EXTT1=
EXTT2=
EXTT3=
EXTT4=
EXTT5=
EXTT6=
EXTT7=
EXTT8=
EXTT9=
EXTT10=
EXTT11=
EXTT12=
EXTT13=
EXTT14=
EXTT15=
EXTT16=
EXTT17=
EXTT18=
EXTT19=
EXTT20=
PLAYORDER=
